name analog
datacolumns 19
datarows 72
range 0.368 0.4035
endheader
time	ground_force_vx	ground_force_vy	ground_force_vz	ground_force_px	ground_force_py	ground_force_pz	l_ground_force_vx	l_ground_force_vy	l_ground_force_vz	l_ground_force_px	l_ground_force_py	l_ground_force_pz	ground_torque_x	ground_torque_y	ground_torque_z	l_ground_torque_x	l_ground_torque_y	l_ground_torque_z
0.368	-0.0	-0.0	-0.0	-0.0	-0.0	-0.0	7.737582206726074	4.165793895721436	-779.0152587890625	-0.0	-0.0	-0.0	-0.0	-0.0	-0.0	271786.21875	-43898.64453125	1188.1939697265625
0.3685	-0.0	-0.0	-0.0	-0.0	-0.0	-0.0	7.328439235687256	3.3413329124450684	-779.4607543945312	-0.0	-0.0	-0.0	-0.0	-0.0	-0.0	271648.65625	-43585.01953125	1322.83349609375
0.369	-0.0	-0.0	-0.0	-0.0	-0.0	-0.0	7.466805934906006	3.32177209854126	-778.1227416992188	-0.0	-0.0	-0.0	-0.0	-0.0	-0.0	271014.3125	-43474.1171875	1519.0201416015625
0.3695	-0.0	-0.0	-0.0	-0.0	-0.0	-0.0	7.540416717529297	3.817130565643311	-777.3640747070312	-0.0	-0.0	-0.0	-0.0	-0.0	-0.0	270670.65625	-43409.26171875	1791.2843017578125
0.37	-0.0	-0.0	-0.0	-0.0	-0.0	-0.0	8.4505033493042	3.571175098419189	-776.64990234375	-0.0	-0.0	-0.0	-0.0	-0.0	-0.0	270732.5	-43323.8203125	1965.994384765625
0.3705	-0.0	-0.0	-0.0	-0.0	-0.0	-0.0	8.820651054382324	4.665474891662598	-776.7870483398438	-0.0	-0.0	-0.0	-0.0	-0.0	-0.0	270500.09375	-43386.69140625	2452.7109375
0.371	-0.0	-0.0	-0.0	-0.0	-0.0	-0.0	9.561768531799316	4.7126312255859375	-776.5756225585938	-0.0	-0.0	-0.0	-0.0	-0.0	-0.0	270844.15625	-43403.88671875	2612.08056640625
0.3715	-0.0	-0.0	-0.0	-0.0	-0.0	-0.0	9.93560791015625	5.085071563720703	-776.87353515625	-0.0	-0.0	-0.0	-0.0	-0.0	-0.0	270651.59375	-43383.09765625	2939.7333984375
0.372	-0.0	-0.0	-0.0	-0.0	-0.0	-0.0	9.986759185791016	5.371508121490479	-780.07861328125	-0.0	-0.0	-0.0	-0.0	-0.0	-0.0	270980.15625	-43354.796875	3045.89111328125
0.3725	-0.0	-0.0	-0.0	-0.0	-0.0	-0.0	9.59716796875	5.987321376800537	-778.6168823242188	-0.0	-0.0	-0.0	-0.0	-0.0	-0.0	270840.84375	-43621.76171875	2945.086181640625
0.373	-0.0	-0.0	-0.0	-0.0	-0.0	-0.0	8.85055160522461	6.0922160148620605	-779.3793334960938	-0.0	-0.0	-0.0	-0.0	-0.0	-0.0	270992.1875	-43522.2265625	2826.5908203125
0.3735	-0.0	-0.0	-0.0	-0.0	-0.0	-0.0	8.922905921936035	6.412502765655518	-779.0298461914062	-0.0	-0.0	-0.0	-0.0	-0.0	-0.0	270960.65625	-43543.8125	2696.238525390625
0.374	-0.0	-0.0	-0.0	-0.0	-0.0	-0.0	8.444435119628906	6.908688545227051	-778.3309936523438	-0.0	-0.0	-0.0	-0.0	-0.0	-0.0	270815.65625	-43535.16796875	2618.196044921875
0.3745	-0.0	-0.0	-0.0	-0.0	-0.0	-0.0	7.486973762512207	6.660317420959473	-776.9926147460938	-0.0	-0.0	-0.0	-0.0	-0.0	-0.0	270511.8125	-43192.33203125	2433.39013671875
0.375	-0.0	-0.0	-0.0	-0.0	-0.0	-0.0	7.079553127288818	6.481950759887695	-777.1405029296875	-0.0	-0.0	-0.0	-0.0	-0.0	-0.0	269887.25	-43109.83203125	2379.8046875
0.3755	-0.0	-0.0	-0.0	-0.0	-0.0	-0.0	6.653308868408203	5.971047878265381	-775.9525756835938	-0.0	-0.0	-0.0	-0.0	-0.0	-0.0	269531.9375	-42738.359375	2379.37158203125
0.376	-0.0	-0.0	-0.0	-0.0	-0.0	-0.0	6.174306869506836	5.528973579406738	-775.326171875	-0.0	-0.0	-0.0	-0.0	-0.0	-0.0	269239.1875	-42392.640625	2390.7724609375
0.3765	-0.0	-0.0	-0.0	-0.0	-0.0	-0.0	5.32282829284668	5.263936519622803	-774.557373046875	-0.0	-0.0	-0.0	-0.0	-0.0	-0.0	268527.03125	-41835.01953125	2253.74169921875
0.377	-0.0	-0.0	-0.0	-0.0	-0.0	-0.0	4.2401227951049805	5.4584479331970215	-771.555908203125	-0.0	-0.0	-0.0	-0.0	-0.0	-0.0	267721.9375	-41535.0703125	2027.43310546875
0.3775	-0.0	-0.0	-0.0	-0.0	-0.0	-0.0	3.7607595920562735	4.980768203735352	-772.0429077148438	-0.0	-0.0	-0.0	-0.0	-0.0	-0.0	267168.03125	-41271.09765625	1878.6104736328125
0.378	-0.0	-0.0	-0.0	-0.0	-0.0	-0.0	3.069176197052002	4.487173557281494	-770.994873046875	-0.0	-0.0	-0.0	-0.0	-0.0	-0.0	266863.78125	-40903.3984375	1854.43115234375
0.3785	-0.0	-0.0	-0.0	-0.0	-0.0	-0.0	3.0347039699554443	4.398947715759277	-770.999755859375	-0.0	-0.0	-0.0	-0.0	-0.0	-0.0	266987.75	-40787.56640625	1854.4002685546875
0.379	-0.0	-0.0	-0.0	-0.0	-0.0	-0.0	2.6971452236175537	4.081470012664795	-770.6514282226562	-0.0	-0.0	-0.0	-0.0	-0.0	-0.0	266885.6875	-40747.08984375	1900.88916015625
0.3795	-0.0	-0.0	-0.0	-0.0	-0.0	-0.0	2.553677082061768	3.532867431640625	-770.7266845703125	-0.0	-0.0	-0.0	-0.0	-0.0	-0.0	266587.34375	-40837.8515625	1890.5438232421875
0.38	-0.0	-0.0	-0.0	-0.0	-0.0	-0.0	2.431121587753296	3.146028518676758	-769.662841796875	-0.0	-0.0	-0.0	-0.0	-0.0	-0.0	266356.5	-40648.34765625	1913.04150390625
0.3805	-0.0	-0.0	-0.0	-0.0	-0.0	-0.0	2.447899103164673	3.0029373168945312	-770.0867919921875	-0.0	-0.0	-0.0	-0.0	-0.0	-0.0	266257.5625	-40807.7578125	1782.3460693359375
0.381	-0.0	-0.0	-0.0	-0.0	-0.0	-0.0	2.1485371589660645	3.2348785400390625	-769.5301513671875	-0.0	-0.0	-0.0	-0.0	-0.0	-0.0	266376.1875	-40871.66796875	1817.40185546875
0.3815	-0.0	-0.0	-0.0	-0.0	-0.0	-0.0	2.658191442489624	3.797832489013672	-770.6548461914062	-0.0	-0.0	-0.0	-0.0	-0.0	-0.0	267020.46875	-40713.9921875	1877.20361328125
0.382	-0.0	-0.0	-0.0	-0.0	-0.0	-0.0	2.891272783279419	5.0703606605529785	-770.57763671875	-0.0	-0.0	-0.0	-0.0	-0.0	-0.0	267108.96875	-40632.08984375	1932.67529296875
0.3825	-0.0	-0.0	-0.0	-0.0	-0.0	-0.0	2.4876391887664795	5.636411666870117	-771.95947265625	-0.0	-0.0	-0.0	-0.0	-0.0	-0.0	267195.84375	-40688.44140625	1895.016845703125
0.383	-0.0	-0.0	-0.0	-0.0	-0.0	-0.0	2.197567939758301	5.989842891693115	-771.3392944335938	-0.0	-0.0	-0.0	-0.0	-0.0	-0.0	267007.6875	-40347.640625	1723.5986328125
0.3835	-0.0	-0.0	-0.0	-0.0	-0.0	-0.0	1.685504913330078	5.391943454742432	-771.8941040039062	-0.0	-0.0	-0.0	-0.0	-0.0	-0.0	266579.15625	-40058.42578125	1545.098388671875
0.384	-0.0	-0.0	-0.0	-0.0	-0.0	-0.0	1.6696192026138306	5.143094539642334	-769.861083984375	-0.0	-0.0	-0.0	-0.0	-0.0	-0.0	266105.8125	-39850.97265625	1585.3118896484375
0.3845	-0.0	-0.0	-0.0	-0.0	-0.0	-0.0	1.5238242149353027	4.083450794219971	-769.8596801757812	-0.0	-0.0	-0.0	-0.0	-0.0	-0.0	265908.71875	-39427.8984375	1516.6600341796875
0.385	-0.0	-0.0	-0.0	-0.0	-0.0	-0.0	1.7376827001571655	2.7639896869659424	-768.421142578125	-0.0	-0.0	-0.0	-0.0	-0.0	-0.0	265728.25	-39450.625	1684.0498046875
0.3855	-0.0	-0.0	-0.0	-0.0	-0.0	-0.0	1.5967941284179688	1.8338141441345213	-766.9420776367188	-0.0	-0.0	-0.0	-0.0	-0.0	-0.0	265063.9375	-39027.53515625	1715.082275390625
0.386	-0.0	-0.0	-0.0	-0.0	-0.0	-0.0	2.092404842376709	1.6204612255096436	-766.9418334960938	-0.0	-0.0	-0.0	-0.0	-0.0	-0.0	264656.46875	-38941.8125	1754.0335693359375
0.3865	-0.0	-0.0	-0.0	-0.0	-0.0	-0.0	2.404322385787964	1.3461638689041138	-767.5797729492188	-0.0	-0.0	-0.0	-0.0	-0.0	-0.0	264804.15625	-39136.93359375	1750.1734619140625
0.387	-0.0	-0.0	-0.0	-0.0	-0.0	-0.0	3.386146783828736	1.1783230304718018	-766.9669799804688	-0.0	-0.0	-0.0	-0.0	-0.0	-0.0	265104.4375	-39213.3828125	2049.526123046875
0.3875	-0.0	-0.0	-0.0	-0.0	-0.0	-0.0	4.909126281738281	1.3615107536315918	-767.698486328125	-0.0	-0.0	-0.0	-0.0	-0.0	-0.0	265497.09375	-39279.5	2579.587158203125
0.388	-0.0	-0.0	-0.0	-0.0	-0.0	-0.0	5.781121253967285	1.626523733139038	-771.3037109375	-0.0	-0.0	-0.0	-0.0	-0.0	-0.0	266095.28125	-39477.55859375	2923.93798828125
0.3885	-0.0	-0.0	-0.0	-0.0	-0.0	-0.0	6.335433483123779	1.950461268424988	-772.3815307617188	-0.0	-0.0	-0.0	-0.0	-0.0	-0.0	267040.71875	-39495.36328125	2961.5234375
0.389	-0.0	-0.0	-0.0	-0.0	-0.0	-0.0	6.269108295440674	2.156574010848999	-774.0993041992188	-0.0	-0.0	-0.0	-0.0	-0.0	-0.0	267255.96875	-39338.6015625	3045.677001953125
0.3895	-0.0	-0.0	-0.0	-0.0	-0.0	-0.0	6.129003524780273	1.6411985158920288	-773.6573486328125	-0.0	-0.0	-0.0	-0.0	-0.0	-0.0	267119.5	-39220.52734375	3000.843994140625
0.39	-0.0	-0.0	-0.0	-0.0	-0.0	-0.0	5.167960643768311	1.2221533060073853	-773.6632690429688	-0.0	-0.0	-0.0	-0.0	-0.0	-0.0	267070.625	-38939.58984375	2681.351806640625
0.3905	-0.0	-0.0	-0.0	-0.0	-0.0	-0.0	3.740169525146485	0.6182518005371094	-772.177001953125	-0.0	-0.0	-0.0	-0.0	-0.0	-0.0	266310.6875	-38354.7578125	2444.8427734375
0.391	-0.0	-0.0	-0.0	-0.0	-0.0	-0.0	3.067607879638672	0.241968423128128	-768.9579467773438	-0.0	-0.0	-0.0	-0.0	-0.0	-0.0	265522.4375	-37955.41015625	2219.322509765625
0.3915	-0.0	-0.0	-0.0	-0.0	-0.0	-0.0	1.877001166343689	-0.6834320425987244	-766.5707397460938	-0.0	-0.0	-0.0	-0.0	-0.0	-0.0	263987.71875	-37531.90625	1963.6944580078125
0.392	-0.0	-0.0	-0.0	-0.0	-0.0	-0.0	1.1437697410583496	-1.6642192602157593	-765.2108764648438	-0.0	-0.0	-0.0	-0.0	-0.0	-0.0	263158.65625	-37245.17578125	1641.2449951171875
0.3925	-0.0	-0.0	-0.0	-0.0	-0.0	-0.0	1.1808583736419678	-2.914615631103516	-765.2860107421875	-0.0	-0.0	-0.0	-0.0	-0.0	-0.0	262379.8125	-37120.5078125	1725.2315673828125
0.393	-0.0	-0.0	-0.0	-0.0	-0.0	-0.0	1.685504913330078	-3.60112738609314	-764.145263671875	-0.0	-0.0	-0.0	-0.0	-0.0	-0.0	262414.15625	-36942.93359375	2009.4844970703125
0.3935	-0.0	-0.0	-0.0	-0.0	-0.0	-0.0	2.893110036849976	-4.035734176635742	-767.2339477539062	-0.0	-0.0	-0.0	-0.0	-0.0	-0.0	263291.0625	-37273.6640625	2297.72314453125
0.394	-0.0	-0.0	-0.0	-0.0	-0.0	-0.0	3.981245756149292	-3.862074375152588	-770.8316040039062	-0.0	-0.0	-0.0	-0.0	-0.0	-0.0	264454.3125	-37420.6875	2671.614013671875
0.3945	-0.0	-0.0	-0.0	-0.0	-0.0	-0.0	5.005484104156494	-3.2038042545318604	-774.0259399414062	-0.0	-0.0	-0.0	-0.0	-0.0	-0.0	265400.34375	-37904.33203125	2922.421875
0.395	-0.0	-0.0	-0.0	-0.0	-0.0	-0.0	6.462682247161865	-1.830315470695496	-776.8623046875	-0.0	-0.0	-0.0	-0.0	-0.0	-0.0	266580.625	-38129.84765625	3017.2392578125
0.3955	-0.0	-0.0	-0.0	-0.0	-0.0	-0.0	7.933073043823242	-0.6052243709564209	-777.864013671875	-0.0	-0.0	-0.0	-0.0	-0.0	-0.0	267409.59375	-38288.609375	3251.5126953125
0.396	-0.0	-0.0	-0.0	-0.0	-0.0	-0.0	8.554096221923828	0.0883216857910156	-779.5065307617188	-0.0	-0.0	-0.0	-0.0	-0.0	-0.0	267315.125	-38587.4609375	3485.11572265625
0.3965	-0.0	-0.0	-0.0	-0.0	-0.0	-0.0	9.17514419555664	0.706573486328125	-779.6531982421875	-0.0	-0.0	-0.0	-0.0	-0.0	-0.0	266781.28125	-38560.87109375	3706.1201171875
0.397	-0.0	-0.0	-0.0	-0.0	-0.0	-0.0	9.301884651184082	0.8200181126594543	-774.966064453125	-0.0	-0.0	-0.0	-0.0	-0.0	-0.0	266262.59375	-38106.2265625	3638.537353515625
0.3975	-0.0	-0.0	-0.0	-0.0	-0.0	-0.0	8.947161674499512	0.5803768634796143	-773.6702880859375	-0.0	-0.0	-0.0	-0.0	-0.0	-0.0	265407.28125	-37960.16015625	3396.70947265625
0.398	-0.0	-0.0	-0.0	-0.0	-0.0	-0.0	7.654759407043457	-0.164215862751007	-773.719970703125	-0.0	-0.0	-0.0	-0.0	-0.0	-0.0	264675.375	-37557.98828125	2823.486083984375
0.3985	-0.0	-0.0	-0.0	-0.0	-0.0	-0.0	6.260303020477295	-0.5802565813064575	-771.7265014648438	-0.0	-0.0	-0.0	-0.0	-0.0	-0.0	264394.6875	-37601.89453125	2331.19775390625
0.399	-0.0	-0.0	-0.0	-0.0	-0.0	-0.0	5.334887981414795	-0.5162367820739746	-773.515380859375	-0.0	-0.0	-0.0	-0.0	-0.0	-0.0	264270.53125	-37362.59765625	2008.5382080078125
0.3995	-0.0	-0.0	-0.0	-0.0	-0.0	-0.0	5.526206970214844	-0.2389414012432098	-773.2752075195312	-0.0	-0.0	-0.0	-0.0	-0.0	-0.0	264585.21875	-37202.79296875	1830.238525390625
0.4	-0.0	-0.0	-0.0	-0.0	-0.0	-0.0	5.840616703033447	-0.5920479893684387	-772.9180908203125	-0.0	-0.0	-0.0	-0.0	-0.0	-0.0	264265.5625	-37110.265625	1636.2850341796875
0.4005	-0.0	-0.0	-0.0	-0.0	-0.0	-0.0	5.742442607879639	-1.525122880935669	-772.2299194335938	-0.0	-0.0	-0.0	-0.0	-0.0	-0.0	264090.3125	-36941.4453125	1622.3729248046875
0.401	-0.0	-0.0	-0.0	-0.0	-0.0	-0.0	5.488286018371582	-2.3080949783325195	-773.568603515625	-0.0	-0.0	-0.0	-0.0	-0.0	-0.0	264405.21875	-36856.375	1427.19091796875
0.4015	-0.0	-0.0	-0.0	-0.0	-0.0	-0.0	5.476743698120117	-2.2963638305664062	-774.069091796875	-0.0	-0.0	-0.0	-0.0	-0.0	-0.0	264125.90625	-36788.9453125	1168.0089111328125
0.402	-0.0	-0.0	-0.0	-0.0	-0.0	-0.0	5.145225524902344	-2.776399612426758	-773.62939453125	-0.0	-0.0	-0.0	-0.0	-0.0	-0.0	263807.84375	-36698.59375	1033.4927978515625
0.4025	-0.0	-0.0	-0.0	-0.0	-0.0	-0.0	4.435539245605469	-3.1411056518554688	-773.9620361328125	-0.0	-0.0	-0.0	-0.0	-0.0	-0.0	263885.53125	-36522.8515625	829.1305541992188
0.403	-0.0	-0.0	-0.0	-0.0	-0.0	-0.0	4.074306488037109	-3.267902374267578	-774.113525390625	-0.0	-0.0	-0.0	-0.0	-0.0	-0.0	263792.8125	-36583.015625	552.73779296875
0.4035	-0.0	-0.0	-0.0	-0.0	-0.0	-0.0	3.764630079269409	-3.5661895275115967	-773.13037109375	-0.0	-0.0	-0.0	-0.0	-0.0	-0.0	263862.5625	-36258.58984375	341.0427551269531
